<?xml version="1.0" encoding="UTF-8"?>
<svg xmlns="http://www.w3.org/2000/svg" version="1.1" viewBox="0 0 99.552697 117.869">
	<path fill="#bcbbbb" d="m 84.0719,107.351 0,-31.5511 10.5164,0 0,42.0691 -94.5883,0 0,-42.0691 10.5164,0 0,31.5511 73.5555,0"/>
	<path fill="#f48024" d="m 21.0445,96.8331 52.5821,0 0,-10.5164 -52.5821,0 0,10.5164 z M 68.1711,0 59.7328,6.276 91.1145,48.4674 99.5527,42.1913 68.1711,0 Z M 42.0879,24.8741 82.4926,58.5245 89.2227,50.4432 48.818,16.793 42.0879,24.8741 Z M 28.8973,48.2588 76.5637,70.4581 81.0035,60.9249 33.3371,38.7256 28.8973,48.2588 Z M 22.0887,72.8979 73.5469,83.7127 75.7098,73.421 24.2516,62.6061 22.0887,72.8979"/>
</svg>
