<svg xmlns="http://www.w3.org/2000/svg" xmlns:xlink="http://www.w3.org/1999/xlink" viewBox="0 0 240 240">
	<defs>
		<linearGradient id="blue" gradientUnits="userSpaceOnUse" x1="160" y1="40" x2="100" y2="180">
			<stop stop-color="#37aee2" offset="0"/>
			<stop stop-color="#1e96c8" offset="1"/>
		</linearGradient>
		<linearGradient id="white" gradientUnits="userSpaceOnUse" x1="135" y1="120" x2="160" y2="160">
			<stop stop-color="#eff7fc" offset="0"/>
			<stop stop-color="#ffffff" offset="1"/>
		</linearGradient>
	</defs>
	<circle cx="120" cy="120" r="120" fill="url(#blue)"/>
	<path fill="#c8daea" d="m 98,175 c -3.887644,0 -3.226996,-1.46793 -4.567796,-5.16949 L 82,132.20592 170,80 Z"/>
	<path fill="#a9c9dd" d="m 98,175 c 3,0 4.32548,-1.37199 6,-3 l 16,-15.55784 -19.95763,-12.03538 z"/>
	<path fill="url(#white)" d="m 100.04237,144.40678 48.36017,35.72884 c 5.51851,3.04487 9.5014,1.46836 10.87626,-5.12353 l 19.68513,-92.762819 c 2.01542,-8.080226 -3.08008,-11.745195 -8.35944,-9.348192 L 55.010511,117.48476 c -7.890082,3.1647 -7.844107,7.56662 -1.438184,9.52797 l 29.662531,9.2583 68.673252,-43.325271 c 3.24187,-1.965881 6.21727,-0.908988 3.77523,1.25841 z"/>
</svg>
